<mxfile host="65bd71144e">
    <diagram id="7Kbr6tyqxXFWXJ8VY5kE" name="Page-1">
        <mxGraphModel dx="668" dy="765" grid="1" gridSize="10" guides="1" tooltips="1" connect="1" arrows="1" fold="1" page="1" pageScale="1" pageWidth="827" pageHeight="1169" math="0" shadow="0">
            <root>
                <mxCell id="0"/>
                <mxCell id="1" parent="0"/>
                <mxCell id="4" value="" style="edgeStyle=none;html=1;" edge="1" parent="1" source="2" target="3">
                    <mxGeometry relative="1" as="geometry"/>
                </mxCell>
                <mxCell id="2" value="INICIO" style="ellipse;whiteSpace=wrap;html=1;fillColor=#60a917;fontColor=#ffffff;strokeColor=#2D7600;" vertex="1" parent="1">
                    <mxGeometry x="220" y="30" width="120" height="80" as="geometry"/>
                </mxCell>
                <mxCell id="6" value="" style="edgeStyle=none;html=1;" edge="1" parent="1" source="3" target="5">
                    <mxGeometry relative="1" as="geometry"/>
                </mxCell>
                <mxCell id="3" value="n = 4 digitos" style="shape=parallelogram;perimeter=parallelogramPerimeter;whiteSpace=wrap;html=1;fixedSize=1;fillColor=#0050ef;fontColor=#ffffff;strokeColor=#001DBC;" vertex="1" parent="1">
                    <mxGeometry x="220" y="190" width="120" height="60" as="geometry"/>
                </mxCell>
                <mxCell id="8" value="" style="edgeStyle=none;html=1;" edge="1" parent="1" source="5" target="7">
                    <mxGeometry relative="1" as="geometry"/>
                </mxCell>
                <mxCell id="5" value="&lt;div style=&quot;color: rgb(212 , 212 , 212) ; font-family: &amp;#34;droid sans mono&amp;#34; , &amp;#34;monospace&amp;#34; , monospace ; font-size: 14px ; line-height: 19px&quot;&gt;&lt;div&gt;&lt;span style=&quot;background-color: rgb(30 , 30 , 30)&quot;&gt;&lt;span style=&quot;color: rgb(79 , 193 , 255)&quot;&gt;D1&lt;/span&gt; = &lt;span style=&quot;color: rgb(156 , 220 , 254)&quot;&gt;n&lt;/span&gt; % &lt;span style=&quot;color: rgb(181 , 206 , 168)&quot;&gt;10&lt;/span&gt;&lt;/span&gt;&lt;/div&gt;&lt;div&gt;&lt;span style=&quot;background-color: rgb(30 , 30 , 30)&quot;&gt;&lt;span style=&quot;color: #4fc1ff&quot;&gt;D2&lt;/span&gt; = &lt;span style=&quot;color: #4ec9b0&quot;&gt;int&lt;/span&gt;((&lt;span style=&quot;color: #9cdcfe&quot;&gt;n&lt;/span&gt; % &lt;span style=&quot;color: #b5cea8&quot;&gt;100&lt;/span&gt;)/&lt;span style=&quot;color: #b5cea8&quot;&gt;10&lt;/span&gt;)&lt;/span&gt;&lt;/div&gt;&lt;div&gt;&lt;span style=&quot;background-color: rgb(30 , 30 , 30)&quot;&gt;&lt;span style=&quot;color: #4fc1ff&quot;&gt;D3&lt;/span&gt; = &lt;span style=&quot;color: #4ec9b0&quot;&gt;int&lt;/span&gt;((&lt;span style=&quot;color: #9cdcfe&quot;&gt;n&lt;/span&gt; % &lt;span style=&quot;color: #b5cea8&quot;&gt;1000&lt;/span&gt;)/&lt;span style=&quot;color: #b5cea8&quot;&gt;100&lt;/span&gt;)&lt;/span&gt;&lt;/div&gt;&lt;div&gt;&lt;span style=&quot;background-color: rgb(30 , 30 , 30)&quot;&gt;&lt;span style=&quot;color: rgb(79 , 193 , 255)&quot;&gt;D4&lt;/span&gt; = &lt;span style=&quot;color: rgb(78 , 201 , 176)&quot;&gt;int&lt;/span&gt;((&lt;span style=&quot;color: rgb(156 , 220 , 254)&quot;&gt;n&lt;/span&gt; % &lt;span style=&quot;color: rgb(181 , 206 , 168)&quot;&gt;10000&lt;/span&gt;)/ &lt;span style=&quot;color: rgb(181 , 206 , 168)&quot;&gt;1000&lt;/span&gt;)&lt;/span&gt;&lt;/div&gt;&lt;/div&gt;" style="whiteSpace=wrap;html=1;fillColor=#d80073;fontColor=#ffffff;strokeColor=#A50040;" vertex="1" parent="1">
                    <mxGeometry x="160" y="300" width="235" height="140" as="geometry"/>
                </mxCell>
                <mxCell id="10" value="" style="edgeStyle=none;html=1;" edge="1" parent="1" source="7" target="9">
                    <mxGeometry relative="1" as="geometry"/>
                </mxCell>
                <mxCell id="7" value="D1, D2, D3, D4&amp;nbsp;" style="shape=document;whiteSpace=wrap;html=1;boundedLbl=1;fillColor=#6a00ff;fontColor=#ffffff;strokeColor=#3700CC;" vertex="1" parent="1">
                    <mxGeometry x="217.5" y="530" width="120" height="80" as="geometry"/>
                </mxCell>
                <mxCell id="9" value="FIN" style="ellipse;whiteSpace=wrap;html=1;fillColor=#008a00;fontColor=#ffffff;strokeColor=#005700;" vertex="1" parent="1">
                    <mxGeometry x="217.5" y="710" width="120" height="60" as="geometry"/>
                </mxCell>
            </root>
        </mxGraphModel>
    </diagram>
</mxfile>